{"title":"Bird (1988) 720p Webrip x264-pong","uid":15502371,"size":1024793840,"categoryP":"video","categoryS":"movies","magnet":"?xt=urn:btih:c2e7ae9ebfb371745d7c0852ab5747c1df7a7640&amp;dn=Bird+%281988%29+720p+Webrip+x264-pong&amp;tr=udp%3A%2F%2Ftracker.leechers-paradise.org%3A6969&amp;tr=udp%3A%2F%2Fzer0day.ch%3A1337&amp;tr=udp%3A%2F%2Fopen.demonii.com%3A1337&amp;tr=udp%3A%2F%2Ftracker.coppersurfer.tk%3A6969&amp;tr=udp%3A%2F%2Fexodus.desync.com%3A6969","seeders":3,"leechers":4,"uploader":"Pongydog","files":1,"time":1470530229,"description":"http://www.imdb.com/title/tt0094747\r\n\r\n\r\nThe troubled life and career of the jazz musician, Charlie &quot;Bird&quot; Parker. \r\n\r\nDirector: Clint Eastwood  \r\n\r\nWriter: Joel Oliansky  \r\n\r\nStars: Forest Whitaker,  Diane Venora,  Michael Zelniker  | See full cast &amp; crew » \r\n\r\n\r\n\r\n------------------\r\n\r\nGeneral\r\nComplete name                            : C:Usersuser1VideosBird (1988) 720p Webrip x264-pong.mp4\r\nFormat                                   : MPEG-4\r\nFormat profile                           : Base Media\r\nCodec ID                                 : isom (isom/iso2/avc1/mp41)\r\nFile size                                : 977 MiB\r\nDuration                                 : 2h 34mn\r\nOverall bit rate                         : 887 Kbps\r\nMovie name                               : Bird.1988.German.DL.720p.HDTV.x264-msd\r\nEncoded date                             : UTC 2016-08-03 02:06:58\r\nTagged date                              : UTC 2016-08-03 02:06:58\r\nWriting application                      : Lavf57.36.100\r\n\r\nVideo\r\nID                                       : 1\r\nFormat                                   : AVC\r\nFormat/Info                              : Advanced Video Codec\r\nFormat profile                           :   \r\nFormat settings, CABAC                   : Yes\r\nFormat settings, ReFrames                : 8 frames\r\nCodec ID                                 : avc1\r\nCodec ID/Info                            : Advanced Video Coding\r\nDuration                                 : 2h 34mn\r\nBit rate                                 : 777 Kbps\r\nWidth                                    : 1 280 pixels\r\nHeight                                   : 720 pixels\r\nDisplay aspect ratio                     : 16:9\r\nFrame rate mode                          : Constant\r\nFrame rate                               : 25.000 fps\r\nColor space                              : YUV\r\nChroma subsampling                       : 4:2:0\r\nBit depth                                : 8 bits\r\nScan type                                : Progressive\r\nBits/(Pixel*Frame)                       : 0.034\r\nStream size                              : 865 MiB (89%)\r\nWriting library                          : x264 core 148 r2643\r\nEncoding settings                        : cabac=1 / ref=8 / deblock=1:0:0 / analyse=0x3:0x133 / me=umh / subme=9 / psy=1 / psy_rd=1.00:0.00 / mixed_ref=0 / me_range=16 / chroma_me=1 / trellis=2 / 8x8dct=1 / cqm=0 / deadzone=21,11 / fast_pskip=1 / chroma_qp_offset=-2 / threads=3 / lookahead_threads=1 / sliced_threads=0 / nr=0 / decimate=1 / interlaced=0 / bluray_compat=0 / constrained_intra=0 / bframes=3 / b_pyramid=0 / b_adapt=2 / b_bias=0 / direct=3 / weightb=1 / open_gop=0 / weightp=2 / keyint=250 / keyint_min=25 / scenecut=40 / intra_refresh=0 / rc_lookahead=60 / rc=abr / mbtree=1 / bitrate=777 / ratetol=1.0 / qcomp=0.60 / qpmin=10 / qpmax=69 / qpstep=4 / vbv_maxrate=2400 / vbv_bufsize=24000 / nal_hrd=none / filler=0 / ip_ratio=1.40 / aq=3:1.00\r\nEncoded date                             : UTC 2016-08-03 02:06:58\r\nTagged date                              : UTC 2016-08-03 02:06:58\r\n\r\nAudio\r\nID                                       : 2\r\nFormat                                   : AAC\r\nFormat/Info                              : Advanced Audio Codec\r\nFormat profile                           : LC\r\nCodec ID                                 : 40\r\nDuration                                 : 2h 34mn\r\nBit rate mode                            : Constant\r\nBit rate                                 : 96.0 Kbps\r\nChannel(s)                               : 2 channels\r\nChannel positions                        : Front: L R\r\nSampling rate                            : 48.0 KHz\r\nFrame rate                               : 46.875 fps (1024 spf)\r\nCompression mode                         : Lossy\r\nStream size                              : 106 MiB (11%)\r\nLanguage                                 : English\r\nDefault                                  : Yes\r\nAlternate group                          : 1\r\nEncoded date                             : UTC 2016-08-03 02:06:58\r\nTagged date                              : UTC 2016-08-03 02:06:58","torrent":{"xt":"urn:btih:c2e7ae9ebfb371745d7c0852ab5747c1df7a7640","amp;dn":"Bird+%281988%29+720p+Webrip+x264-pong","amp;tr":["udp%3A%2F%2Ftracker.leechers-paradise.org%3A6969","udp%3A%2F%2Fzer0day.ch%3A1337","udp%3A%2F%2Fopen.demonii.com%3A1337","udp%3A%2F%2Ftracker.coppersurfer.tk%3A6969","udp%3A%2F%2Fexodus.desync.com%3A6969"],"infoHash":"c2e7ae9ebfb371745d7c0852ab5747c1df7a7640","infoHashBuffer":{"type":"Buffer","data":[194,231,174,158,191,179,113,116,93,124,8,82,171,87,71,193,223,122,118,64]},"announce":[],"urlList":[]}}